<svg
  width="100%"
  height="100%"
  viewBox="0 0 100 100"
  fill="none"
  xmlns="http://www.w3.org/2000/svg"
>
  <g>
    <path
      d="M50 0C78.8 0 100 21.2 100 50C100 78.8 78.8 100 50 100C21.2 100 0 78.8 0 50C0 21.2 21.2 0 50 0Z"
      fill="#000000"
    />
    <path
      d="M30 75H70C73.8 75 77 71.8 77 68V32C77 28.2 73.8 25 70 25H30C26.2 25 23 28.2 23 32V68C23 71.8 26.2 75 30 75Z"
      fill="white"
    />
    <path
      d="M39 58L50 50L39 42V58Z"
      fill="#000000"
    />
  </g>
</svg>
